<svg width="20" height="20" viewBox="0 0 20 20" fill="none" xmlns="http://www.w3.org/2000/svg">
<circle cx="10" cy="10" r="10" fill="white"/>
<path d="M10 1L10.262 8.76753L13.6606 1.77809L10.7406 8.98064L16.6883 3.97782L11.0912 9.37L18.5595 7.21885L11.2531 9.86829L18.9507 10.9408L11.1983 10.3894L17.7942 14.5L10.9364 10.8431L15.2901 17.2812L10.5125 11.1511L11.8712 18.8033L10 11.26L8.12879 18.8033L9.48751 11.1511L4.70993 17.2812L9.06364 10.8431L2.20577 14.5L8.80167 10.3894L1.0493 10.9408L8.7469 9.86829L1.44049 7.21885L8.90881 9.37L3.3117 3.97782L9.25939 8.98064L6.33937 1.77809L9.73803 8.76753L10 1Z" fill="black"/>
</svg>
